<svg id="Layer_1" data-name="Layer 1" xmlns="http://www.w3.org/2000/svg" viewBox="0 0 199 48"><defs><style>.cls-1{fill:#014551;}.cls-2{fill:#0e1112;}</style></defs><title>Artboard 1</title><path class="cls-1" d="M123.18,21.14c1.23-.1,2.47,0,3.77,0C125.65,21.11,124.41,21,123.18,21.14Zm-13.68,0h.25l2.81-.11-2.81.1Zm-.77,1.8a2.28,2.28,0,0,0,0,.27l0-.27a.66.66,0,0,0,0-.21A.72.72,0,0,1,108.73,22.92Zm0-.21a.24.24,0,0,0-.1-.14A.28.28,0,0,1,108.73,22.71Zm-.25,9.05.26.17a2,2,0,0,1-.26-.18ZM108,26.45c.2-.85.39-1.65.56-2.47C108.43,24.8,108.23,25.6,108,26.45Zm0-4.84a5.39,5.39,0,0,0-.73.48A6.54,6.54,0,0,1,108,21.61Zm-5.61,9h0Zm.75,7.67a1.73,1.73,0,0,0,.13-.21c.5-1.13,1-2.25,1.52-3.38l-1.53,3.38A1.57,1.57,0,0,1,103.15,38.28Zm-2.4-17.47h0a2,2,0,0,1-.37-.48,1.79,1.79,0,0,0,.36.49Zm-.5,9.79H99.18c.37,0,.73,0,1.08,0Zm-.65-7.84h0l-.12,0Zm-.15.29c0-.08,0-.18,0-.26h0C99.46,22.87,99.45,23,99.45,23.05ZM98.34,8.64A9,9,0,0,1,99.85,9,8.76,8.76,0,0,0,98.34,8.64ZM96,8.55a11.19,11.19,0,0,1,2.32.09A10.54,10.54,0,0,0,96,8.55Zm-3.76.33c1-.05,2-.15,2.93-.26C94.2,8.72,93.23,8.83,92.25,8.88ZM92,30.59h0Zm-3.17.89c0-.2.07-.4.1-.59a.56.56,0,0,1,.07-.18.58.58,0,0,0-.08.18Z"/><path class="cls-1" d="M102.82,18.88c-.15.17-.32.34-.49.51-.34.33-.69.62-1,.95,0,0,0,0,0,0l-.52.46h0a1.79,1.79,0,0,1-.36-.49,1.06,1.06,0,0,1,.07-1.08,5.82,5.82,0,0,0,.34-.77c0-.13.09-.26.14-.4a7.44,7.44,0,0,0,.2-.78h0a7.11,7.11,0,0,0,.1-.79,5.93,5.93,0,0,0-.29-2.3,3.75,3.75,0,0,0-.9-1.5l-.31-.31a6.48,6.48,0,0,0-1.09-.77c-.34-.19-.7-.36-1-.52a9.82,9.82,0,0,0-1.07-.38,5.44,5.44,0,0,0-.54-.15,8,8,0,0,0-2.19-.17h0a3.88,3.88,0,0,0-.48,0c-.39.05-.58.07-.67.17s-.1.29-.11.67c0,1.67,0,3.35-.08,5s-.07,3.35-.1,5a1,1,0,0,1-.1.45l-.13.18c-.06.06-.12.1-.17.16-.33.28-.66.57-1,.87l-1,.85a3.55,3.55,0,0,0-.23.31l.08.12,2.35-.3v2.45h-3c0-.33,0-.67,0-1,0-3.19.11-6.39.17-9.57,0-1.57,0-3.14.08-4.71a.9.9,0,0,0,0-.4l0,0a.33.33,0,0,0-.21,0h-.24c-.77.07-1.54.14-2.32.19h0l0-.09c.57-.35,1.15-.7,1.73-1l0,0a4.16,4.16,0,0,1,2.91-.78l1,0c1-.05,2-.16,2.93-.26.28,0,.55-.06.83-.07a10.54,10.54,0,0,1,2.32.09h0A8.76,8.76,0,0,1,99.85,9a6.55,6.55,0,0,1,1,.44,6,6,0,0,1,2,9.43Z"/><path class="cls-1" d="M127,21.11a2.77,2.77,0,0,1-.15.24l-.07.06-.36.23a10.06,10.06,0,0,1-1.12.62,1.11,1.11,0,0,0-.65.76c-.64,1.95-1.22,3.93-2,5.85-1,2.56-2.12,5.06-3.21,7.57-.5,1.14-1,2.26-1.59,3.36a8.76,8.76,0,0,1-1.06,1.32l-.65.73a110.78,110.78,0,0,1-4.19-11.26c.8,0,1.6,0,2.39,0a.26.26,0,0,1,.17.1.41.41,0,0,1,.12.17c.46,1.24.91,2.48,1.38,3.72l1.35,3.72h0a.81.81,0,0,0,.11.2l.14.24a1.25,1.25,0,0,0,.2-.33c1.54-3.49,3-7,4.24-10.65.12-.37.24-.73.35-1.1s.22-.73.3-1.1a12.46,12.46,0,0,0,.37-2.28c0-.45,0-.64-.12-.72l-.09,0h-.12l-.36,0c-.54,0-1.06,0-1.73,0,.2-.19.4-.35.59-.5a3.63,3.63,0,0,1,2-.87C124.41,21,125.65,21.11,127,21.11Z"/><path class="cls-1" d="M107.56,30.62c-.23,1.31-2.15,5.31-3.86,8.3-.17.27-.32.53-.46.78s-.3.5-.45.72l-.21.34a13.82,13.82,0,0,1-.92,1.24c-.21-.58-.41-1.17-.6-1.76-.28-.83-.54-1.66-.8-2.49-.74-2.38-1.43-4.76-2.19-7.16h2.19a.26.26,0,0,1,.16.09l.07.09a.69.69,0,0,1,0,.1c.48,1.52,1,3,1.42,4.56l.78,2.52a4.54,4.54,0,0,0,.23.59l.19-.28a1.57,1.57,0,0,0,.12-.21l1.53-3.38c.51-1.13,1-2.26,1.51-3.4a1.84,1.84,0,0,1,.36-.64.44.44,0,0,1,.19-.07A3.16,3.16,0,0,1,107.56,30.62Z"/><path class="cls-1" d="M113,25.48c.1.32.19.64.28,1h-2.32c-.27,0-.35-.11-.41-.36-.13-.54-.29-1.07-.47-1.73a3.31,3.31,0,0,0-.31.48,9,9,0,0,0-.42,1.17.84.84,0,0,1-.08.21.53.53,0,0,1-.6.23H108c.19-.85.39-1.65.56-2.47h0c0-.16.06-.35.08-.52a2.3,2.3,0,0,1,0-.26,2.28,2.28,0,0,1,0-.27.72.72,0,0,0,0-.21.28.28,0,0,0-.1-.14.06.06,0,0,0-.06,0l-.07,0a.55.55,0,0,0-.18,0c-.48,0-.93,0-1.5,0a5.87,5.87,0,0,1,.46-.41,5.39,5.39,0,0,1,.73-.48l.25-.13a4.2,4.2,0,0,1,.53-.22,3.31,3.31,0,0,1,.71-.14l.25,0,2.81-.1,1,0-.55.37-.25.17-.24.15a1.51,1.51,0,0,0-.36.27.12.12,0,0,0-.05,0c-.11.13-.06.29.06.67l.27.93C112.62,24.22,112.8,24.84,113,25.48Z"/><path class="cls-1" d="M98.09,22.26c-.11.12-.12.28,0,.53.37,1.11.69,2.25,1,3.37,0,.08,0,.17.05.27H96.76c-.22-.64-.46-1.31-.69-2-.1-.27-.2-.55-.29-.82s-.2-.54-.32-.81h0a.67.67,0,0,0-.3-.27l-.12,0a1.74,1.74,0,0,0-.32,0c-.42,0-.87,0-1.39,0a6,6,0,0,1,.46-.41,6.71,6.71,0,0,1,.95-.58,3.81,3.81,0,0,1,.66-.27,3.5,3.5,0,0,1,1.26-.17c1,0,2-.07,3-.1h.06a.31.31,0,0,1,.22.1l-.78.5c-.25.16-.51.32-.78.46l-.17.1A.57.57,0,0,0,98.09,22.26Z"/><path class="cls-1" d="M95.4,32.69l-1,.51c-.32.16-.64.32-1,.46s-.66.29-1,.41-.68.24-1,.34a6.68,6.68,0,0,1-.87.17,10.3,10.3,0,0,1-1.24.06c-.73,0-1.47,0-2.21,0,0,0,0-.09,0-.12.31-.23.65-.42,1-.67a1.35,1.35,0,0,0,.43-.63c.12-.59.2-1.18.29-1.76l.09-.59a.58.58,0,0,1,.08-.18c0-.05.1-.1.14-.1H92c-.16.34-.29.65-.44,1h0c-.14.32-.29.63-.44,1h0l.11,0a7.91,7.91,0,0,0,.87.13C93.18,32.78,94.29,32.71,95.4,32.69Z"/><path class="cls-1" d="M111.29,32.62a.14.14,0,0,1,0,.09.45.45,0,0,1-.06.12h0c-.38.25-.75.52-1.12.78a5.75,5.75,0,0,1-2.07,1l-.21,0h-.22a.8.8,0,0,1-.21,0h-.09c.4-1,.79-1.86,1.18-2.82h0a2,2,0,0,0,.26.18,4.75,4.75,0,0,0,.55.28,3.43,3.43,0,0,0,.57.17,3.83,3.83,0,0,0,1.18.09.1.1,0,0,1,.07,0,.07.07,0,0,1,.06,0Z"/><path class="cls-1" d="M103.12,26.44h-2.5a.25.25,0,0,1-.13-.06.28.28,0,0,1-.09-.13c-.32-1-.63-2-.93-3a.41.41,0,0,1,0-.15c0-.09,0-.18,0-.26h0l.12,0h0Z"/><path class="cls-1" d="M105.28,30.6h0l-.22.54c-.14.36-.29.71-.43,1.09-.08.18-.15.37-.23.56-.5-.56-1-1.08-1.49-1.63l-.5-.56h2.87Z"/><path class="cls-2" d="M16.89,28.6c-.26,0-.48,0-.73,0a3.52,3.52,0,0,1-3.11-1.72c-.74-1-1.46-2.27-2.09-3.28-.4-.64-.66-.76-1.68-.76H8.59v3.13c0,1.69.22,1.79,1.81,1.95v.56H5.08v-.56c1.65-.18,1.79-.26,1.79-1.95V18c0-1.69-.22-1.75-1.79-1.93v-.56h5.08a5.63,5.63,0,0,1,3.19.68A3,3,0,0,1,14.7,18.8a3.67,3.67,0,0,1-2.57,3.42c.36.62,1.22,2,1.81,2.85a18,18,0,0,0,1.58,2.05A2.86,2.86,0,0,0,17,28ZM9.54,22.12a3.23,3.23,0,0,0,2.19-.57,2.8,2.8,0,0,0,1.1-2.45,2.68,2.68,0,0,0-2.95-2.91,1.77,1.77,0,0,0-1.05.2c-.18.14-.24.34-.24.85v4.88Z"/><path class="cls-2" d="M24.26,28.68a1.46,1.46,0,0,1-.93-.38,1.88,1.88,0,0,1-.48-.9,6.26,6.26,0,0,1-2.39,1.28A2.45,2.45,0,0,1,18,26.23a2,2,0,0,1,1.63-2,15.13,15.13,0,0,0,3.15-1.29v-.4c0-1.41-.72-2.23-1.75-2.23a1.16,1.16,0,0,0-.94.46,4.33,4.33,0,0,0-.54,1.29.55.55,0,0,1-.57.46,1,1,0,0,1-.88-.87c0-.28.26-.52.66-.8a8.25,8.25,0,0,1,2.87-1.4,2.61,2.61,0,0,1,2.68,2.85v3.85c0,.91.34,1.19.7,1.19a1.59,1.59,0,0,0,.72-.22l.2.56Zm-1.45-5c-.44.22-1.39.63-1.85.83-.76.34-1.22.72-1.22,1.46a1.45,1.45,0,0,0,1.44,1.53,2.63,2.63,0,0,0,1.63-.72Z"/><path class="cls-2" d="M35.22,20.23c-1,.16-1.25.32-1.75,1.45s-1,2.47-2.41,5.94a53.08,53.08,0,0,0-2,5.46c-.12.42-.34.52-.6.52a1.16,1.16,0,0,1-1.22-1c0-.26.14-.44.44-.7a4.47,4.47,0,0,0,1.34-1.47c.41-.84.71-1.54.81-1.79a1.17,1.17,0,0,0,0-.82c-.77-2.27-1.85-4.72-2.45-6.16-.43-1.09-.61-1.33-1.71-1.47v-.54h4v.54c-.91.14-1,.34-.75,1.08l1.93,4.9c.56-1.38,1.35-3.59,1.77-4.84.24-.76.1-1-1.05-1.14v-.54h3.64Z"/><path class="cls-2" d="M46.72,28.44v-.56c1.17-.12,1.31-.2,1.31-1.59V23c0-1.41-.48-2.31-1.71-2.31a3.64,3.64,0,0,0-2.21,1,8.23,8.23,0,0,1,.06.86V26.4c0,1.26.18,1.36,1.27,1.48v.56H41.18v-.56c1.23-.12,1.41-.2,1.41-1.52V22.94c0-1.47-.45-2.29-1.67-2.29a3.85,3.85,0,0,0-2.19,1v4.68c0,1.32.14,1.4,1.27,1.52v.56H35.72v-.56c1.32-.12,1.44-.2,1.44-1.52V22.24c0-1.27-.08-1.35-1.2-1.55v-.5a10.67,10.67,0,0,0,2.77-.8V21a14.85,14.85,0,0,1,1.47-1,2.72,2.72,0,0,1,1.58-.52A2.34,2.34,0,0,1,44,21.09c.56-.44,1.07-.78,1.57-1.12a3,3,0,0,1,1.57-.52c1.56,0,2.51,1.12,2.51,3.07v3.84c0,1.34.12,1.4,1.26,1.52v.56Z"/><path class="cls-2" d="M56.5,19.45a4.29,4.29,0,0,1,4.34,4.47,4.47,4.47,0,0,1-4.34,4.76,4.38,4.38,0,0,1-4.42-4.45A4.57,4.57,0,0,1,56.5,19.45Zm-.24.68c-1.21,0-2.31,1.18-2.31,3.49C54,26.15,55.07,28,56.7,28c1.23,0,2.27-.9,2.27-3.63C59,22,58,20.13,56.26,20.13Z"/><path class="cls-2" d="M67.85,28.44v-.56c1.16-.12,1.28-.26,1.28-1.61V23c0-1.39-.5-2.33-1.81-2.33a3.48,3.48,0,0,0-2.21,1v4.66c0,1.38.12,1.42,1.29,1.54v.56H62.1v-.56c1.31-.14,1.43-.22,1.43-1.54v-4.1c0-1.29-.14-1.35-1.21-1.53v-.52a11.4,11.4,0,0,0,2.79-.8V21c.39-.28.83-.58,1.35-.92a3.06,3.06,0,0,1,1.65-.6c1.6,0,2.59,1.18,2.59,3.11v3.78c0,1.36.12,1.42,1.28,1.54v.56Z"/><path class="cls-2" d="M82.78,27.94a20.82,20.82,0,0,0-3.09.74v-1.3c-.36.22-.88.5-1.24.72a3.58,3.58,0,0,1-1.57.58,4.16,4.16,0,0,1-3.7-4.39,5,5,0,0,1,5.15-4.84,4.07,4.07,0,0,1,1.36.22V16.74c0-1.27-.14-1.31-1.55-1.43v-.52a20.9,20.9,0,0,0,3.12-.67v12c0,1,.14,1.17.88,1.21l.64,0Zm-3.09-6.69a2.5,2.5,0,0,0-2.09-1c-1,0-2.65.64-2.65,3.51,0,2.41,1.49,3.68,2.77,3.7a3.59,3.59,0,0,0,2-.72Z"/><path class="cls-2" d="M149.57,15.41c-1.4.2-1.59.36-2.13,2-.66,2-2.25,7.05-3.35,10.62h-.68c-1-3.11-2.37-6.95-3.4-9.9-1.16,3.43-2.33,6.83-3.37,9.9H136c-1-3.43-2.14-7.15-3.21-10.64-.52-1.61-.74-1.83-2-2v-.56h4.92v.56c-1.48.16-1.52.38-1.24,1.37.78,2.69,1.58,5.34,2.39,8.15,1.1-3.17,2.29-6.63,3.31-9.9h.64c1.11,3.39,2.23,6.54,3.38,9.92.84-2.65,2-6.19,2.41-7.93.3-1.15.14-1.41-1.55-1.61v-.56h4.56Z"/><path class="cls-2" d="M154.91,28a1.42,1.42,0,0,1-.93-.38,1.88,1.88,0,0,1-.48-.9A6.26,6.26,0,0,1,151.11,28a2.44,2.44,0,0,1-2.43-2.45,2,2,0,0,1,1.63-2,15.61,15.61,0,0,0,3.15-1.3v-.4c0-1.41-.72-2.23-1.75-2.23a1.16,1.16,0,0,0-.94.46,4.29,4.29,0,0,0-.54,1.3.56.56,0,0,1-.58.45,1,1,0,0,1-.87-.87c0-.28.26-.52.65-.8a8.43,8.43,0,0,1,2.87-1.39,2.82,2.82,0,0,1,1.68.53,2.78,2.78,0,0,1,1,2.31v3.85c0,.91.34,1.19.7,1.19a1.59,1.59,0,0,0,.72-.22l.2.56Zm-1.45-5c-.44.22-1.4.64-1.85.84-.76.33-1.22.71-1.22,1.45a1.45,1.45,0,0,0,1.44,1.53,2.7,2.7,0,0,0,1.63-.71Z"/><path class="cls-2" d="M157.42,27.8v-.56c1.26-.12,1.4-.22,1.4-1.57v-4.1c0-1.24-.06-1.32-1.26-1.52v-.48a12.85,12.85,0,0,0,2.83-.79v6.89c0,1.35.14,1.45,1.44,1.57v.56Zm2.08-11a1.08,1.08,0,0,1,0-2.15,1.08,1.08,0,0,1,0,2.15Z"/><path class="cls-2" d="M167.42,27.8h-4.58v-.56c1.26-.12,1.38-.22,1.38-1.51V21.59c0-1.32-.08-1.38-1.24-1.52v-.5a10.86,10.86,0,0,0,2.81-.81V21c.7-1,1.53-2.13,2.53-2.13a1,1,0,0,1,1.16.95,1.34,1.34,0,0,1-.68,1.1.39.39,0,0,1-.52,0,1.26,1.26,0,0,0-.9-.5c-.41,0-1.15.62-1.59,1.63v3.75c0,1.31.1,1.41,1.63,1.53Z"/><path class="cls-2" d="M177.38,26.11a4.52,4.52,0,0,1-3.3,1.93,4,4,0,0,1-3.91-4.28,5.11,5.11,0,0,1,1.3-3.49,4.07,4.07,0,0,1,3-1.45,3.1,3.1,0,0,1,3,3.08c0,.4-.08.58-.39.66s-3,.26-5.32.34c-.06,2.67,1.57,3.76,3,3.76a3.36,3.36,0,0,0,2.31-1ZM174,19.57c-.92,0-1.81.86-2.09,2.47,1.11,0,2.23,0,3.4-.06.36,0,.48-.1.48-.39A1.86,1.86,0,0,0,174,19.57Z"/><path class="cls-2" d="M181.57,24.89a1.46,1.46,0,0,0-.66,1c0,.36.34.75,1.24.75l2.23,0c1.27,0,2.91.42,2.91,2.39s-2.45,4-5.1,4c-2.25,0-3.47-1.32-3.51-2.49a1.58,1.58,0,0,1,.5-1.14A18.53,18.53,0,0,1,180.81,28a2.61,2.61,0,0,1-1.49-1.08,1.78,1.78,0,0,1-.24-.85,4.2,4.2,0,0,0,1.83-1.38Zm1,.2a3.09,3.09,0,0,1-3.39-3,3.42,3.42,0,0,1,3.58-3.32,4.21,4.21,0,0,1,1.92.49,13.5,13.5,0,0,0,2.67-.29l.12.18a2.52,2.52,0,0,1-.74,1.05c-.3,0-1-.08-1.24-.1A3.08,3.08,0,0,1,186,21.9,3.23,3.23,0,0,1,182.53,25.09ZM183,28a2.52,2.52,0,0,0-1.77.42,2.27,2.27,0,0,0-1,1.63c0,1.1,1.14,1.91,2.67,1.91,1.9,0,3-1,3-2.25A1.49,1.49,0,0,0,185,28.3,5.29,5.29,0,0,0,183,28Zm-.45-8.65c-.9,0-1.7.82-1.7,2.39s.8,2.67,1.89,2.67c.88,0,1.66-.77,1.66-2.39S183.64,19.39,182.53,19.39Z"/><path class="cls-2" d="M188.22,27.8v-.56c1.26-.12,1.4-.22,1.4-1.57v-4.1c0-1.24-.06-1.32-1.26-1.52v-.48a13,13,0,0,0,2.83-.79v6.89c0,1.35.14,1.45,1.44,1.57v.56Zm2.07-11a1.08,1.08,0,0,1,0-2.15,1.08,1.08,0,0,1,0,2.15Z"/></svg>