<svg id="Layer_1" data-name="Layer 1" xmlns="http://www.w3.org/2000/svg" viewBox="0 0 862 164"><defs><style>.cls-1{fill:#014551;}</style></defs><title>logo</title><path class="cls-1" d="M76.45,54.64c-2.85,3.26-6.34,6-9.54,8.92-2.64-2.85-2.74-4.36-1.34-7.21,3.64-7.45,4.8-15.25,2.25-23.25C66.08,27.65,62,24,57.17,21.2c-7.58-4.29-15.66-6.53-24.49-5.43-3.53.44-3.51.31-3.57,3.86-.28,15.42-.61,30.84-.84,46.26a4.63,4.63,0,0,1-1.86,3.67q-4.55,3.91-9,7.91a9,9,0,0,0-1.08,1.42c.13.17.25.35.37.53L27.48,78V89.37H13.89c0-1.57,0-3.13,0-4.68q.38-22.05.76-44.09c.12-7.21.27-14.43.38-21.64,0-2.3-.16-2.41-2.49-2.21l-10.73.88c-.05-.15-.1-.31-.16-.46l8-4.76a.61.61,0,0,0,.18-.09C13.73,9,18.33,8.76,23.24,8.74a172.89,172.89,0,0,0,18-1.31c9-1,17.81-.53,26,3.78C76.73,16.15,82.65,23.7,83.36,34.5A27.26,27.26,0,0,1,76.45,54.64Z"/><path class="cls-1" d="M187.54,64.94c-.24.35-.48,1.08-1,1.38a54.92,54.92,0,0,1-6.82,3.89,5.1,5.1,0,0,0-3,3.5c-2.94,9-5.63,18.14-9.08,27-4.6,11.75-9.76,23.28-14.79,34.86-2.26,5.22-4.62,10.42-7.28,15.44-1.21,2.27-3.25,4.09-4.94,6.1-1,1.13-2,2.23-3,3.36-2-2.54-18.5-46.95-19.26-51.86,3.68,0,7.34,0,11,.06.47,0,1.15.71,1.35,1.24,4.22,11.41,8.38,22.84,12.58,34.27a15.53,15.53,0,0,0,1.18,2.07,13.5,13.5,0,0,0,.94-1.5c7.09-16.12,13.95-32.33,19.46-49.07,2.21-6.71,4.28-13.48,4.7-20.62.21-3.5.23-3.58-3.17-3.64-2.47,0-4.93,0-8,0,3.69-3.29,7.29-6,11.72-6.32C175.85,64.59,181.57,64.94,187.54,64.94Z"/><path class="cls-1" d="M98.27,108.72c-1.52,8.77-19.55,43.77-27.16,52.47-6.12-17.42-11-35-16.55-52.62,3.56,0,6.82,0,10.09.06.45,0,1.11.78,1.28,1.32,2.21,7,4.35,14,6.51,21,1.19,3.87,2.36,7.75,3.57,11.62.24.77.59,1.52,1.06,2.71A22.18,22.18,0,0,0,78.56,143c4.68-10.38,9.4-20.75,14-31.17C94.09,108.29,93.92,108.22,98.27,108.72Z"/><path class="cls-1" d="M119.44,72.09c1.7,5.7,3.34,11.41,5.1,17.42-3.73,0-7.21,0-10.69,0-1.26,0-1.66-.55-1.92-1.69-.57-2.48-1.32-4.91-2.15-7.93a15.46,15.46,0,0,0-1.44,2.21,47.42,47.42,0,0,0-1.92,5.35c-.46,1.72-1.38,2.32-3.09,2.07a19.14,19.14,0,0,0-2.85,0c.9-3.89,1.81-7.63,2.6-11.39.34-1.6.4-3.25.6-4.87s-.55-2-1.94-1.94c-2.15.06-4.3,0-6.89,0a24.05,24.05,0,0,1,9.07-5.7,15.26,15.26,0,0,1,4.42-.72c5.63-.25,11.26-.4,17.53-.6-1.89,1.26-3.33,2.27-4.81,3.21C118.51,69.15,118.55,69.12,119.44,72.09Z"/><path class="cls-1" d="M59.3,88.2a10.24,10.24,0,0,1,.22,1.23h-11c-1.05-3-2.12-6-3.22-9.06-.9-2.53-1.73-5.08-2.79-7.54a2.77,2.77,0,0,0-2-1.41c-2.4-.17-4.81-.07-7.83-.07,1-.84,1.5-1.42,2.14-1.87,4-2.81,8.05-4.92,13.2-4.69,4.57.2,9.17-.3,13.75-.49a1.74,1.74,0,0,1,1.32.55c-2.41,1.49-4.74,3.12-7.24,4.43-1.57.83-2,1.53-1.4,3.34C56.27,77.77,57.74,83,59.3,88.2Z"/><path class="cls-1" d="M42.29,118.24a87.54,87.54,0,0,1-18.07,7.93c-6.54,1.85-13.25.58-19.87,1.17-.06-.21-.12-.41-.17-.61a48.14,48.14,0,0,0,4.38-3,6,6,0,0,0,2-2.9c.74-3.58,1.14-7.23,1.76-10.85.08-.49.64-1.27,1-1.28,4.18-.09,8.36-.06,13.19-.06l-4,9C29,118.9,35.6,118.34,42.29,118.24Z"/><path class="cls-1" d="M115.16,118.9c-4.7,3-9,6.89-14.71,8a14.14,14.14,0,0,1-2,.19c-.38,0-.77-.06-1.42-.11l5.44-13a17.6,17.6,0,0,0,11.77,3.27,1.69,1.69,0,0,1,1.15.73C115.56,118.1,115.38,118.76,115.16,118.9Z"/><path class="cls-1" d="M77.85,89.5c-4.16,0-7.85,0-11.54,0a1.49,1.49,0,0,1-1-.91q-2.21-7-4.25-14a6.85,6.85,0,0,1,0-1.87l.58-.19Z"/><path class="cls-1" d="M87.81,108.63c-1.37,3.38-2.65,6.54-4.11,10.12l-9.21-10.12Z"/><path class="cls-1" d="M252.92,103.16c-1.18,0-2.18-.09-3.36-.18-6.61-.46-10.15-2.18-14.13-7.8-3.36-4.62-6.62-10.33-9.52-15-1.81-2.9-3-3.44-7.61-3.44h-3.17V91c0,7.71,1,8.16,8.24,8.89v2.53H199.18V99.9c7.52-.82,8.15-1.18,8.15-8.89V54.86c0-7.71-1-8-8.15-8.79V43.53h23.11c6.61,0,11.05.81,14.5,3.08C240.5,49,243,53,243,58.57c0,7.8-5,12.69-11.69,15.59,1.63,2.81,5.53,8.88,8.24,13a84.19,84.19,0,0,0,7.16,9.33,13,13,0,0,0,6.62,4.17ZM219.48,73.71c4.71,0,7.7-.73,10-2.63,3.53-2.63,5-6.26,5-11.15,0-9.7-6.43-13.23-13.41-13.23-2.63,0-4.17.36-4.81.91-.81.63-1.08,1.54-1.08,3.89V73.71Z"/><path class="cls-1" d="M286.44,103.52a6.68,6.68,0,0,1-4.26-1.72A8.56,8.56,0,0,1,280,97.72c-3.63,2.45-8.07,5.8-10.88,5.8a11.12,11.12,0,0,1-11.05-11.15c0-4.44,2.45-7.34,7.43-9.06,5.53-1.9,12.32-4.26,14.32-5.89V75.61c0-6.44-3.26-10.15-8-10.15a5.29,5.29,0,0,0-4.26,2.08c-1,1.27-1.63,3.27-2.44,5.89a2.53,2.53,0,0,1-2.63,2.09,4.36,4.36,0,0,1-4-4c0-1.27,1.18-2.36,3-3.62,2.63-1.91,7.89-5.26,13.05-6.35A12.52,12.52,0,0,1,282.18,64c3.18,2.72,4.63,5.8,4.63,10.51V92c0,4.17,1.54,5.44,3.17,5.44a7.16,7.16,0,0,0,3.26-1l.91,2.54Zm-6.61-22.93c-2,1-6.35,2.9-8.43,3.81-3.44,1.54-5.53,3.26-5.53,6.61a6.59,6.59,0,0,0,6.53,7,12.05,12.05,0,0,0,7.43-3.26Z"/><path class="cls-1" d="M336.28,65.1c-4.71.72-5.7,1.45-8,6.61s-4.71,11.24-11,27a247.37,247.37,0,0,0-9,24.83c-.54,1.9-1.54,2.35-2.72,2.35-2.9,0-5.52-2.08-5.52-4.35,0-1.17.63-2,2-3.17,2.9-2.26,5-4.44,6.07-6.7,1.9-3.81,3.26-7,3.72-8.16a5.35,5.35,0,0,0-.18-3.72c-3.54-10.33-8.43-21.47-11.15-28-2-5-2.81-6.07-7.79-6.7V62.65h18.3V65.1c-4.17.63-4.62,1.54-3.44,4.89l8.79,22.29C319,86,322.6,76,324.5,70.26c1.09-3.44.46-4.44-4.8-5.16V62.65h16.58Z"/><path class="cls-1" d="M388.57,102.43V99.9c5.35-.55,6-.91,6-7.25V77.51c0-6.43-2.17-10.51-7.79-10.51-3.44,0-6.62,1.9-10.06,4.71a37.7,37.7,0,0,1,.27,3.9V93.19c0,5.71.82,6.16,5.8,6.71v2.53H363.38V99.9c5.62-.55,6.43-.91,6.43-6.89V77.42c0-6.71-2.08-10.42-7.61-10.42-3.62,0-7.16,2.45-10,4.71V93c0,6,.64,6.34,5.8,6.89v2.53H338.55V99.9c6-.55,6.52-.91,6.52-6.89V74.25c0-5.8-.36-6.16-5.43-7.07V64.92a49,49,0,0,0,12.59-3.63v7.34a64,64,0,0,1,6.71-4.71,12.3,12.3,0,0,1,7.16-2.36c4.35,0,8.06,2.72,9.88,7.43,2.53-2,4.89-3.53,7.15-5.07a13.79,13.79,0,0,1,7.16-2.36c7.07,0,11.42,5.08,11.42,14V93c0,6.07.55,6.34,5.71,6.89v2.53Z"/><path class="cls-1" d="M433.06,61.56c11.33,0,19.76,8.61,19.76,20.3,0,14.68-10.88,21.66-19.76,21.66-12.5,0-20.11-10.06-20.11-20.21C413,68.54,424.45,61.56,433.06,61.56ZM432,64.64c-5.53,0-10.52,5.35-10.52,15.86,0,11.51,5.08,19.85,12.51,19.85,5.62,0,10.33-4.08,10.33-16.49C444.3,73.25,440,64.64,432,64.64Z"/><path class="cls-1" d="M484.72,102.43V99.9c5.25-.55,5.8-1.18,5.8-7.35v-15c0-6.34-2.27-10.6-8.25-10.6-3.72,0-7.25,2.17-10.06,4.71V92.92c0,6.25.54,6.43,5.89,7v2.53H458.53V99.9c6-.64,6.52-1,6.52-7V74.25c0-5.89-.63-6.16-5.53-7V64.92a51.68,51.68,0,0,0,12.69-3.63v7.16c1.81-1.27,3.81-2.63,6.16-4.17,2.54-1.63,4.9-2.72,7.52-2.72,7.25,0,11.79,5.35,11.79,14.14V92.92c0,6.16.54,6.43,5.8,7v2.53Z"/><path class="cls-1" d="M552.59,100.17a96.09,96.09,0,0,0-14.05,3.35V97.63c-1.63,1-4,2.27-5.61,3.26-3.63,2.09-6.08,2.63-7.16,2.63-7.25,0-16.86-7.25-16.86-19.94s11.06-22,23.47-22a18.31,18.31,0,0,1,6.16,1V49.24c0-5.8-.63-6-7.06-6.53V40.36a91.79,91.79,0,0,0,14.22-3.08V91.92c0,4.71.64,5.35,4,5.53l2.9.18ZM538.54,69.72c-2.08-3.17-6-4.62-9.51-4.62-4.35,0-12,2.9-12,16,0,11,6.79,16.76,12.59,16.85a16.25,16.25,0,0,0,9-3.26Z"/><path class="cls-1" d="M660.43,46.07c-6.35.9-7.25,1.63-9.7,9.06-3,9.06-10.24,32.08-15.22,48.3h-3.09c-4.71-14.14-10.78-31.63-15.49-45-5.26,15.59-10.6,31.08-15.32,45h-3C594.09,87.84,588.93,70.9,584,55c-2.35-7.34-3.35-8.34-9.24-9V43.53h22.38v2.54c-6.7.72-6.88,1.72-5.62,6.25,3.54,12.23,7.16,24.29,10.88,37.06,5-14.41,10.42-30.17,15-45h2.9c5.08,15.41,10.15,29.73,15.41,45.13,3.8-12,9-28.18,11-36.06,1.36-5.26.64-6.44-7.07-7.34V43.53h20.76Z"/><path class="cls-1" d="M684.71,103.52a6.68,6.68,0,0,1-4.26-1.72,8.48,8.48,0,0,1-2.17-4.08c-3.63,2.45-8.07,5.8-10.88,5.8a11.12,11.12,0,0,1-11-11.15c0-4.44,2.44-7.34,7.43-9.06,5.53-1.9,12.32-4.26,14.32-5.89V75.61c0-6.44-3.27-10.15-8-10.15a5.29,5.29,0,0,0-4.26,2.08c-1,1.27-1.63,3.27-2.44,5.89a2.53,2.53,0,0,1-2.63,2.09,4.36,4.36,0,0,1-4-4c0-1.27,1.18-2.36,3-3.62,2.63-1.91,7.88-5.26,13.05-6.35A12.52,12.52,0,0,1,680.45,64c3.18,2.72,4.62,5.8,4.62,10.51V92c0,4.17,1.55,5.44,3.18,5.44a7.16,7.16,0,0,0,3.26-1l.91,2.54ZM678.1,80.59c-2,1-6.35,2.9-8.43,3.81-3.44,1.54-5.53,3.26-5.53,6.61a6.59,6.59,0,0,0,6.53,7,12.08,12.08,0,0,0,7.43-3.26Z"/><path class="cls-1" d="M696.13,102.43V99.9c5.71-.55,6.34-1,6.34-7.16V74.07c0-5.62-.27-6-5.71-6.89V65a59.44,59.44,0,0,0,12.87-3.63V92.74c0,6.16.64,6.61,6.53,7.16v2.53Zm9.42-49.93a5,5,0,0,1-4.8-4.8,4.9,4.9,0,0,1,4.89-5,4.74,4.74,0,0,1,4.63,5A4.82,4.82,0,0,1,705.55,52.5Z"/><path class="cls-1" d="M741.62,102.43H720.78V99.9c5.71-.55,6.25-1,6.25-6.89V74.16c0-6-.36-6.25-5.62-6.89V65a50.53,50.53,0,0,0,12.78-3.72v10c3.17-4.71,7-9.7,11.51-9.7,3.35,0,5.26,2.09,5.26,4.35a6.1,6.1,0,0,1-3.09,5,1.78,1.78,0,0,1-2.35-.19c-1.36-1.35-2.45-2.26-4.08-2.26-1.9,0-5.26,2.81-7.25,7.43v17c0,6,.45,6.43,7.43,7Z"/><path class="cls-1" d="M786.93,94.73c-5.8,7.25-12.14,8.79-15,8.79-11.06,0-17.76-9.06-17.76-19.48A23.24,23.24,0,0,1,760,68.18c3.8-4.26,8.79-6.62,13.5-6.62a14.14,14.14,0,0,1,13.86,14c-.09,1.81-.36,2.63-1.81,3-1.81.36-13.41,1.18-24.19,1.54-.28,12.14,7.16,17.13,13.59,17.13,3.71,0,7.16-1.54,10.51-4.62ZM771.34,65c-4.16,0-8.24,3.89-9.51,11.23,5.07,0,10.15,0,15.5-.27,1.63,0,2.17-.45,2.17-1.81C779.59,69.36,776.42,65,771.34,65Z"/><path class="cls-1" d="M806,89.2c-2.17,1.72-3,3.45-3,4.53,0,1.63,1.54,3.45,5.62,3.45,3.35,0,7.16-.09,10.15-.09C824.54,97.09,832,99,832,108c0,9.42-11.15,18.31-23.2,18.31-10.24,0-15.77-6-15.95-11.33a7.15,7.15,0,0,1,2.27-5.17,84.1,84.1,0,0,1,7.43-6.52,11.79,11.79,0,0,1-6.8-4.9,8.15,8.15,0,0,1-1.09-3.89A19.18,19.18,0,0,0,803,88.21Zm4.35.91c-8.43,0-15.41-5.17-15.41-13.69,0-10.33,9.25-15.13,16.32-15.13a18.59,18.59,0,0,1,8.7,2.27,61.29,61.29,0,0,0,12.14-1.36l.54.81c-.54,1.45-2,4-3.35,4.81-1.36,0-4.35-.37-5.62-.46a14,14,0,0,1,2.63,8.25C826.26,85.49,818.1,90.11,810.31,90.11Zm2.08,13.41c-4.44,0-6.43.54-8.06,1.9-2.54,2.09-4.35,4.81-4.35,7.43,0,5,5.16,8.7,12.14,8.7,8.61,0,13.51-4.44,13.51-10.24a6.8,6.8,0,0,0-4-6.61C819.37,103.7,816.2,103.52,812.39,103.52Zm-2.08-39.33c-4.08,0-7.7,3.72-7.7,10.87s3.62,12.15,8.61,12.15c4-.18,7.52-3.54,7.52-10.88C818.74,69.26,815.39,64.19,810.31,64.19Z"/><path class="cls-1" d="M836.22,102.43V99.9c5.71-.55,6.35-1,6.35-7.16V74.07c0-5.62-.27-6-5.71-6.89V65a59.77,59.77,0,0,0,12.87-3.63V92.74c0,6.16.63,6.61,6.52,7.16v2.53Zm9.43-49.93a5,5,0,0,1-4.8-4.8,4.89,4.89,0,0,1,4.89-5,4.73,4.73,0,0,1,4.62,5A4.82,4.82,0,0,1,845.65,52.5Z"/></svg>